<svg width="15" height="19" viewBox="0 0 15 19" fill="none" xmlns="http://www.w3.org/2000/svg"><path d="M0 1.24231L8.27342 9.47731L0 17.7615V1.24231Z" fill="#E8E4FF" fill-opacity="0.3"/><path d="M10.9388 6.8905C10.4857 7.39711 9.95034 7.9282 9.47076 8.42229C9.40672 8.48832 9.15029 8.76696 9.1002 8.79286C9.07828 8.80424 9.06519 8.81193 9.04384 8.79286L0.710938 0.475037L1.28956 0.564405L11.0045 6.7166C11.0694 6.74962 10.9761 6.84867 10.9385 6.89079L10.9388 6.8905Z" fill="#E8E4FF" fill-opacity="0.3"/><path d="M10.7038 11.9222C10.7533 11.976 11.0109 12.2167 11.0043 12.2566L1.56199 18.2565C1.31723 18.3983 1.03404 18.5949 0.739746 18.5001L9.01544 10.2108C9.03679 10.1917 9.04988 10.1994 9.0718 10.2108C9.11563 10.2333 9.32994 10.4669 9.38573 10.5244C9.83029 10.9829 10.2723 11.4517 10.7041 11.9219L10.7038 11.9222Z" fill="#E8E4FF" fill-opacity="0.3"/><path d="M10.2778 10.1012C10.1272 9.95577 9.80107 9.68481 9.69548 9.53112C9.67812 9.50608 9.65506 9.49242 9.68125 9.4594L11.9337 7.33135C11.9784 7.32281 12.2485 7.50382 12.3111 7.54253C12.7411 7.80779 14.1844 8.65878 14.4132 8.99491C14.7018 9.4187 14.5826 9.90823 14.204 10.2264L11.9527 11.6734C11.3915 11.1637 10.8268 10.6323 10.2778 10.1015V10.1012Z" fill="#E8E4FF" fill-opacity="0.3"/></svg>