<svg width="15" height="19" viewBox="0 0 15 19" fill="none" xmlns="http://www.w3.org/2000/svg"><path d="M10.8292 4.72718C11.1682 4.7172 11.5603 4.76939 11.893 4.84039C12.9592 5.06779 13.9093 5.63983 14.5199 6.55171C14.5251 6.58683 14.2917 6.72096 14.247 6.75358C12.9243 7.71996 12.3428 9.06112 12.5865 10.7097C12.7957 12.1236 13.7274 13.2256 15 13.8237C14.5755 15.1685 13.8302 16.4777 12.9091 17.5436C12.0291 18.562 11.2277 18.9249 9.89272 18.4885C8.97873 18.1897 8.423 17.8468 7.39445 17.9955C5.99189 18.1982 5.03184 19.2713 3.62391 18.2905C2.99584 17.8528 2.44683 17.1128 2.01334 16.4853C0.276693 13.9704 -0.83668 9.86938 0.797687 7.06349C1.73298 5.45772 3.60587 4.42475 5.47205 4.90948C6.12814 5.07988 6.80802 5.46002 7.45873 5.57094C7.71568 5.61488 7.88416 5.54196 8.12691 5.46942C9.05434 5.19233 9.82153 4.75692 10.8288 4.72718H10.8292Z" fill="#E8E4FF" fill-opacity="0.3"/><path d="M11.1828 0.302307C11.2576 1.2898 10.9759 2.21089 10.4035 3.0061C9.72919 3.94255 8.70486 4.65832 7.49708 4.53493C7.4775 4.5213 7.48057 4.4977 7.47827 4.47697C7.32648 3.21853 8.13935 1.7845 9.14257 1.07353C9.72958 0.657504 10.4578 0.338959 11.1828 0.302307Z" fill="#E8E4FF" fill-opacity="0.3"/></svg>