<svg width="124" height="124" viewBox="0 0 124 124" fill="none" xmlns="http://www.w3.org/2000/svg"><path d="M89.9837 59.1788C78.9332 59.1788 69.9768 67.9692 69.9768 78.8129C69.9768 89.6574 78.9332 98.4497 89.9837 98.4497C101.032 98.4497 109.989 89.6574 109.989 78.8129C109.989 67.9692 101.032 59.1788 89.9837 59.1788ZM38.006 59.1797C26.9574 59.1806 18 67.9692 18 78.8138C18 89.6574 26.9574 98.4488 38.006 98.4488C49.0554 98.4488 58.0129 89.6574 58.0129 78.8138C58.0129 67.9692 49.0564 59.1797 38.006 59.1797ZM84.0003 34.635C84.0003 45.4787 75.0438 54.2719 63.9953 54.2719C52.9449 54.2719 43.9884 45.4787 43.9884 34.635C43.9884 23.7914 52.9449 15 63.9953 15C75.0438 15 83.9994 23.7914 83.9994 34.635H84.0003Z" fill="url(#paint0_radial_2001_263)"/><defs><radialGradient id="paint0_radial_2001_263" cx="0" cy="0" r="1" gradientUnits="userSpaceOnUse" gradientTransform="translate(64 63.5) rotate(28.1063) scale(49.8824 45.252)"><stop stop-color="#FFB900"/><stop offset="0.6" stop-color="#F95D8F"/><stop offset="0.9991" stop-color="#F95353"/></radialGradient></defs></svg>