<svg width="124" height="124" viewBox="0 0 124 124" fill="none" xmlns="http://www.w3.org/2000/svg"><path d="M62 112C89.6142 112 112 89.6142 112 62C112 34.3858 89.6142 12 62 12C34.3858 12 12 34.3858 12 62C12 89.6142 34.3858 112 62 112Z" fill="#5865F2"/><path d="M84.3357 41.9784C80.2507 40.1046 75.9398 38.7684 71.5108 38.0034C71.4705 37.9958 71.4288 38.001 71.3916 38.0185C71.3545 38.0359 71.3238 38.0647 71.3041 38.1006C70.716 39.166 70.1821 40.2603 69.7043 41.3795C64.9305 40.6549 60.0745 40.6549 55.3006 41.3795C54.8207 40.2575 54.2793 39.1629 53.6787 38.1006C53.6581 38.0654 53.6274 38.0373 53.5904 38.02C53.5535 38.0026 53.5122 37.9969 53.472 38.0034C49.0443 38.7672 44.7348 40.1034 40.652 41.9784C40.6169 41.9932 40.5872 42.0186 40.5671 42.051C32.3999 54.2478 30.1627 66.1444 31.2604 77.8911C31.2635 77.9199 31.2724 77.9479 31.2866 77.9732C31.3008 77.9986 31.3199 78.0208 31.3428 78.0387C36.0988 81.5597 41.4187 84.2476 47.0756 85.9874C47.1155 85.9993 47.1581 85.9988 47.1977 85.9858C47.2373 85.9728 47.2719 85.9481 47.2971 85.9148C48.5117 84.2622 49.588 82.5123 50.515 80.6829C50.5276 80.6578 50.5348 80.6303 50.5361 80.6022C50.5373 80.5742 50.5326 80.5461 50.5223 80.52C50.512 80.4939 50.4962 80.4702 50.4761 80.4506C50.4559 80.431 50.4319 80.4158 50.4054 80.4062C48.708 79.7582 47.0646 78.9768 45.4906 78.0694C45.462 78.0526 45.438 78.029 45.4207 78.0008C45.4034 77.9725 45.3934 77.9405 45.3914 77.9074C45.3895 77.8743 45.3957 77.8413 45.4096 77.8112C45.4234 77.7811 45.4445 77.7549 45.4709 77.7349C45.8007 77.4889 46.1317 77.2306 46.4467 76.9699C46.4747 76.9469 46.5085 76.9322 46.5444 76.9275C46.5803 76.9227 46.6168 76.928 46.6498 76.9428C56.9606 81.6484 68.1243 81.6484 78.3133 76.9428C78.3466 76.9269 78.3837 76.9208 78.4203 76.9251C78.4569 76.9295 78.4915 76.9442 78.5201 76.9674C78.8351 77.2269 79.1661 77.4877 79.5045 77.7349C79.531 77.7547 79.5522 77.7808 79.5663 77.8107C79.5804 77.8407 79.5868 77.8737 79.5851 77.9067C79.5834 77.9398 79.5736 77.9719 79.5565 78.0003C79.5395 78.0287 79.5157 78.0524 79.4873 78.0694C77.9154 78.9856 76.2687 79.7673 74.565 80.4062C74.5385 80.4162 74.5143 80.4317 74.4942 80.4517C74.4741 80.4717 74.4585 80.4958 74.4484 80.5223C74.4382 80.5488 74.4339 80.5772 74.4355 80.6055C74.4372 80.6338 74.4448 80.6615 74.458 80.6866C75.4004 82.506 76.4751 84.2538 77.6734 85.9161C77.6977 85.9503 77.7322 85.976 77.772 85.9895C77.8118 86.0029 77.8548 86.0035 77.8949 85.9911C83.5595 84.2563 88.8864 81.5682 93.6461 78.0423C93.6694 78.0254 93.6888 78.0037 93.703 77.9787C93.7173 77.9537 93.726 77.9259 93.7285 77.8972C95.0428 64.3144 91.5283 52.5149 84.4132 42.0559C84.3973 42.0218 84.3698 41.9943 84.3357 41.9784ZM52.0532 70.7393C48.9485 70.7393 46.3926 67.8909 46.3926 64.3931C46.3926 60.8953 48.9005 58.0469 52.0532 58.0469C55.2317 58.0469 57.7654 60.9199 57.7137 64.3931C57.7162 67.8909 55.2071 70.7393 52.0532 70.7393ZM72.9887 70.7393C69.884 70.7393 67.3281 67.8909 67.3281 64.3931C67.3281 60.8953 69.836 58.0469 72.9887 58.0469C76.1672 58.0469 78.7009 60.9199 78.6493 64.3931C78.6505 67.8909 76.1672 70.7393 72.9887 70.7393Z" fill="white"/></svg>