<svg width="124" height="124" viewBox="0 0 124 124" fill="none" xmlns="http://www.w3.org/2000/svg"><path d="M18.4326 91.0959C18.4326 94.2215 21.0434 96.7531 24.2602 96.7531H24.344C21.0779 96.7531 18.4326 94.2215 18.4326 91.0959Z" fill="#FBBC05"/><path d="M68.5139 47.2527V62.0226L88.8738 45.961V31.6956C88.8738 28.57 86.2628 26.0385 83.0461 26.0385H38.9366L38.8973 47.2527H68.5139Z" fill="#FBBC05"/><path d="M68.5111 76.7983H38.8455L38.8109 96.7539H83.0437C86.2652 96.7539 88.8714 94.2223 88.8714 91.0967V78.2173L68.5111 62.0284V76.7983Z" fill="#34A853"/><path d="M38.9354 26.0385L18.4326 47.2527H38.9008L38.9354 26.0385Z" fill="#EA4335"/><path d="M18.4326 76.7972V91.0957C18.4326 94.2212 21.0779 96.7528 24.344 96.7528H38.8125L38.8466 76.7972H18.4326Z" fill="#1967D2"/><path d="M38.9008 47.2523H18.4326V76.7967H38.8466L38.9008 47.2523Z" fill="#4285F4"/><path d="M106.774 86.0655V37.5087C105.626 31.0644 98.3989 38.4516 98.3989 38.4516L88.8766 45.9615V78.2115L102.507 89.0496C107.429 89.6814 106.774 86.0655 106.774 86.0655Z" fill="#34A853"/><path d="M68.5139 62.0218L88.879 78.2154V45.9653L68.5139 62.0218Z" fill="#188038"/></svg>