<svg width="124" height="124" viewBox="0 0 124 124" fill="none" xmlns="http://www.w3.org/2000/svg"><style>:root {
      color-scheme: dark light;
    }</style><path d="M35.1005 32.1258C37.9468 34.446 39.0249 34.2821 44.3983 33.9227L95.0558 30.8838C96.1339 30.8838 95.2369 29.8057 94.8747 29.6246L86.4595 23.544C84.8582 22.2847 82.7019 20.8645 78.582 21.2066L29.5431 24.8003C27.7463 24.9642 27.3869 25.8641 28.1057 26.5828L35.1005 32.1258ZM38.1394 43.9421V97.2331C38.1394 100.094 39.5625 101.172 42.7825 100.991L98.4569 97.7707C101.677 97.5896 102.051 95.6289 102.051 93.2944V40.3627C102.051 38.0253 101.151 36.7833 99.1757 36.9645L41.0029 40.3627C38.8467 40.5439 38.1423 41.6047 38.1423 43.9277L38.1394 43.9421ZM93.095 46.7855C93.4544 48.4041 93.095 50.0055 91.4764 50.201L88.7969 50.7415V90.0772C86.4595 91.3365 84.3205 92.0552 82.538 92.0552C79.663 92.0552 78.9443 91.1554 76.8024 88.4759L59.2534 60.9247V87.5789L64.8079 88.8381C64.8079 88.8381 64.8079 92.0581 60.3315 92.0581L47.9777 92.7769C47.6183 92.0581 47.9776 90.2612 49.2369 89.9162L52.4569 89.0164V53.7832L47.9805 53.4239C47.6212 51.8052 48.521 49.4851 51.0194 49.3069L64.2703 48.407L82.538 76.3175V51.6241L77.8805 51.0836C77.5211 49.1229 78.9443 47.6854 80.7412 47.5186L93.095 46.7855ZM25.4261 19.9675L76.443 16.2098C82.7019 15.6693 84.3205 16.0287 88.2564 18.8893L104.549 30.3433C107.229 32.3041 108.128 32.8446 108.128 34.9865V97.7736C108.128 101.712 106.691 104.032 101.688 104.392L42.4203 107.971C38.677 108.152 36.8801 107.612 34.9021 105.111L22.9076 89.5367C20.7658 86.6761 19.8688 84.5342 19.8688 82.0359V26.2292C19.8688 23.0092 21.3063 20.3297 25.4233 19.9703L25.4261 19.9675Z" fill="currentColor"/></svg>