<svg width="124" height="124" viewBox="0 0 124 124" fill="none" xmlns="http://www.w3.org/2000/svg"><path d="M96.7819 58.6862C101.355 58.6862 105.062 54.9788 105.062 50.4056C105.062 45.8324 101.355 42.125 96.7816 42.125C92.208 42.125 88.5 45.8327 88.5 50.4063V58.6862H96.7819ZM73.5938 58.6862C78.1673 58.6862 81.875 54.9785 81.875 50.4049V27.2188C81.875 22.6451 78.1673 18.9375 73.5938 18.9375C69.0202 18.9375 65.3125 22.6451 65.3125 27.2188V50.4049C65.3125 54.9785 69.0202 58.6862 73.5938 58.6862Z" fill="#00BE6D"/><path d="M27.2181 65.3138C22.6448 65.3138 18.9375 69.0212 18.9375 73.5944C18.9375 78.1677 22.6452 81.875 27.2184 81.875C31.792 81.875 35.5 78.1673 35.5 73.5938V65.3138H27.2181ZM50.4062 65.3138C45.8327 65.3138 42.125 69.0215 42.125 73.5951V96.7813C42.125 101.355 45.8327 105.063 50.4062 105.063C54.9798 105.063 58.6875 101.355 58.6875 96.7813V73.5951C58.6875 69.0215 54.9798 65.3138 50.4062 65.3138Z" fill="#F90044"/><path d="M65.3138 96.7819C65.3138 101.355 69.0212 105.062 73.5944 105.062C78.1677 105.062 81.875 101.355 81.875 96.7816C81.875 92.208 78.1673 88.5 73.5938 88.5H65.3138V96.7819ZM65.3138 73.5938C65.3138 78.1673 69.0215 81.875 73.5951 81.875H96.7813C101.355 81.875 105.063 78.1673 105.063 73.5938C105.063 69.0202 101.355 65.3125 96.7813 65.3125H73.5951C69.0215 65.3125 65.3138 69.0202 65.3138 73.5938Z" fill="#F9AA00"/><path d="M58.6862 27.2181C58.6862 22.6448 54.9788 18.9375 50.4056 18.9375C45.8324 18.9375 42.125 22.6452 42.125 27.2184C42.125 31.792 45.8327 35.5 50.4063 35.5H58.6862V27.2181ZM58.6862 50.4062C58.6862 45.8327 54.9785 42.125 50.4049 42.125H27.2188C22.6451 42.125 18.9375 45.8327 18.9375 50.4062C18.9375 54.9798 22.6451 58.6875 27.2188 58.6875H50.4049C54.9785 58.6875 58.6862 54.9798 58.6862 50.4062Z" fill="#00CEFF"/></svg>