<svg width="19" height="19" viewBox="0 0 19 19" fill="none" xmlns="http://www.w3.org/2000/svg"><path d="M18.3972 6.3088C18.3972 6.3088 18.3972 6.3088 18.3972 6.26131C17.728 4.43416 16.5137 2.85665 14.9187 1.74217C13.3236 0.627693 11.4247 0.0300293 9.47886 0.0300293C7.53302 0.0300293 5.63412 0.627693 4.03906 1.74217C2.44399 2.85665 1.22972 4.43416 0.560513 6.26131C0.560513 6.26131 0.560513 6.26131 0.560513 6.3088C-0.186838 8.37065 -0.186838 10.6294 0.560513 12.6913C0.560513 12.6913 0.560513 12.6913 0.560513 12.7387C1.22972 14.5659 2.44399 16.1434 4.03906 17.2579C5.63412 18.3724 7.53302 18.97 9.47886 18.97C11.4247 18.97 13.3236 18.3724 14.9187 17.2579C16.5137 16.1434 17.728 14.5659 18.3972 12.7387C18.3972 12.7387 18.3972 12.7387 18.3972 12.6913C19.1446 10.6294 19.1446 8.37065 18.3972 6.3088ZM2.10864 11.3996C1.77929 10.1546 1.77929 8.84543 2.10864 7.60049H3.87521C3.72328 8.86229 3.72328 10.1378 3.87521 11.3996H2.10864ZM2.88745 13.2991H4.21713C4.44006 14.1462 4.7587 14.9651 5.1669 15.74C4.23546 15.1055 3.45684 14.2717 2.88745 13.2991ZM4.21713 5.70095H2.88745C3.44864 4.73131 4.21731 3.89777 5.13841 3.26004C4.74003 4.03623 4.43096 4.8551 4.21713 5.70095ZM8.51009 16.8133C7.34355 15.9572 6.52426 14.7097 6.20215 13.2991H8.51009V16.8133ZM8.51009 11.3996H5.79375C5.61651 10.1394 5.61651 8.86065 5.79375 7.60049H8.51009V11.3996ZM8.51009 5.70095H6.20215C6.52426 4.29032 7.34355 3.04284 8.51009 2.1868V5.70095ZM16.0323 5.70095H14.7026C14.4797 4.8539 14.161 4.03499 13.7528 3.26004C14.6843 3.89455 15.4629 4.72833 16.0323 5.70095ZM10.4096 2.1868C11.5762 3.04284 12.3955 4.29032 12.7176 5.70095H10.4096V2.1868ZM10.4096 16.8133V13.2991H12.7176C12.3955 14.7097 11.5762 15.9572 10.4096 16.8133ZM13.126 11.3996H10.4096V7.60049H13.126C13.3032 8.86065 13.3032 10.1394 13.126 11.3996ZM13.7813 15.74C14.1895 14.9651 14.5082 14.1462 14.7311 13.2991H16.0608C15.4914 14.2717 14.7128 15.1055 13.7813 15.74ZM16.8111 11.3996H15.0445C15.1218 10.7694 15.1598 10.135 15.1585 9.50003C15.1595 8.86511 15.1215 8.23073 15.0445 7.60049H16.8111C17.1404 8.84543 17.1404 10.1546 16.8111 11.3996Z" fill="#E8E4FF" fill-opacity="0.3"/></svg>