<svg width="753" height="754" viewBox="0 0 753 754" fill="none" xmlns="http://www.w3.org/2000/svg">
<g clip-path="url(#clip0_10483_49868)">
<path d="M219.625 753.5C73.2084 753.5 0 680.291 0 533.875V220.125C0 73.7084 73.2084 0.5 219.625 0.5H533.375C679.791 0.5 753 73.7084 753 220.125V533.875C753 680.291 679.791 753.5 533.375 753.5H219.625Z" fill="#1F2022"/>
<path fill-rule="evenodd" clip-rule="evenodd" d="M376.868 634.373C330.06 634.373 289.211 623.669 254.322 602.262C219.433 580.855 192.345 550.906 173.059 512.417C153.772 473.927 144.129 428.95 144.129 377.487C144.129 325.807 153.772 280.613 173.059 241.907C192.345 203.202 219.433 173.145 254.322 151.738C289.211 130.331 330.06 119.627 376.868 119.627C423.675 119.627 464.524 130.331 499.413 151.738C534.302 173.145 561.39 203.202 580.677 241.907C599.963 280.613 609.606 325.807 609.606 377.487C609.606 428.95 599.963 473.927 580.677 512.417C561.39 550.906 534.302 580.855 499.413 602.262C464.524 623.669 423.675 634.373 376.868 634.373ZM479.209 551.929C541.553 516.012 546.531 408.152 490.328 311.016C434.125 213.881 338.024 164.253 275.681 200.169C213.337 236.085 208.359 343.945 264.562 441.081C320.765 538.217 416.866 587.845 479.209 551.929Z" fill="white"/>
</g>
<defs>
<clipPath id="clip0_10483_49868">
<rect width="753" height="753" fill="white" transform="translate(0 0.5)"/>
</clipPath>
</defs>
</svg>
