<svg width="124" height="124" viewBox="0 0 124 124" fill="none" xmlns="http://www.w3.org/2000/svg"><mask id="mask0_2003_205" style="mask-type:luminance" maskUnits="userSpaceOnUse" x="29" y="17" width="65" height="89"><path d="M69.625 17H35.0937C31.7422 17 29 19.7307 29 23.0682V99.9318C29 103.269 31.7422 106 35.0937 106H87.9062C91.2578 106 94 103.269 94 99.9318V41.2727L69.625 17Z" fill="white"/></mask><g mask="url(#mask0_2003_205)"><path d="M69.625 17H35.0937C31.7422 17 29 19.7307 29 23.0682V99.9318C29 103.269 31.7422 106 35.0937 106H87.9062C91.2578 106 94 103.269 94 99.9318V41.2727L79.7812 31.1591L69.625 17Z" fill="#4285F4"/></g><mask id="mask1_2003_205" style="mask-type:luminance" maskUnits="userSpaceOnUse" x="29" y="17" width="65" height="89"><path d="M69.625 17H35.0937C31.7422 17 29 19.7307 29 23.0682V99.9318C29 103.269 31.7422 106 35.0937 106H87.9062C91.2578 106 94 103.269 94 99.9318V41.2727L69.625 17Z" fill="white"/></mask><g mask="url(#mask1_2003_205)"><path d="M71.4074 39.4978L94 61.9905V41.2727L71.4074 39.4978Z" fill="url(#paint0_linear_2003_205)"/></g><mask id="mask2_2003_205" style="mask-type:luminance" maskUnits="userSpaceOnUse" x="29" y="17" width="65" height="89"><path d="M69.625 17H35.0937C31.7422 17 29 19.7307 29 23.0682V99.9318C29 103.269 31.7422 106 35.0937 106H87.9062C91.2578 106 94 103.269 94 99.9318V41.2727L69.625 17Z" fill="white"/></mask><g mask="url(#mask2_2003_205)"><path d="M45.25 81.7273H77.75V77.6818H45.25V81.7273ZM45.25 89.8182H69.625V85.7727H45.25V89.8182ZM45.25 61.5V65.5455H77.75V61.5H45.25ZM45.25 73.6364H77.75V69.5909H45.25V73.6364Z" fill="#F1F1F1"/></g><mask id="mask3_2003_205" style="mask-type:luminance" maskUnits="userSpaceOnUse" x="29" y="17" width="65" height="89"><path d="M69.625 17H35.0937C31.7422 17 29 19.7307 29 23.0682V99.9318C29 103.269 31.7422 106 35.0937 106H87.9062C91.2578 106 94 103.269 94 99.9318V41.2727L69.625 17Z" fill="white"/></mask><g mask="url(#mask3_2003_205)"><path d="M69.625 17V35.2045C69.625 38.5572 72.352 41.2727 75.7187 41.2727H94L69.625 17Z" fill="#A1C2FA"/></g><mask id="mask4_2003_205" style="mask-type:luminance" maskUnits="userSpaceOnUse" x="29" y="17" width="65" height="89"><path d="M69.625 17H35.0937C31.7422 17 29 19.7307 29 23.0682V99.9318C29 103.269 31.7422 106 35.0937 106H87.9062C91.2578 106 94 103.269 94 99.9318V41.2727L69.625 17Z" fill="white"/></mask><g mask="url(#mask4_2003_205)"><path d="M35.0937 17C31.7422 17 29 19.7307 29 23.0682V23.5739C29 20.2364 31.7422 17.5057 35.0937 17.5057H69.625V17H35.0937Z" fill="white" fill-opacity="0.2"/></g><mask id="mask5_2003_205" style="mask-type:luminance" maskUnits="userSpaceOnUse" x="29" y="17" width="65" height="89"><path d="M69.625 17H35.0937C31.7422 17 29 19.7307 29 23.0682V99.9318C29 103.269 31.7422 106 35.0937 106H87.9062C91.2578 106 94 103.269 94 99.9318V41.2727L69.625 17Z" fill="white"/></mask><g mask="url(#mask5_2003_205)"><path d="M87.9062 105.494H35.0937C31.7422 105.494 29 102.764 29 99.4261V99.9318C29 103.269 31.7422 106 35.0937 106H87.9062C91.2578 106 94 103.269 94 99.9318V99.4261C94 102.764 91.2578 105.494 87.9062 105.494Z" fill="#1A237E" fill-opacity="0.2"/></g><mask id="mask6_2003_205" style="mask-type:luminance" maskUnits="userSpaceOnUse" x="29" y="17" width="65" height="89"><path d="M69.625 17H35.0937C31.7422 17 29 19.7307 29 23.0682V99.9318C29 103.269 31.7422 106 35.0937 106H87.9062C91.2578 106 94 103.269 94 99.9318V41.2727L69.625 17Z" fill="white"/></mask><g mask="url(#mask6_2003_205)"><path d="M75.7187 41.2728C72.352 41.2728 69.625 38.5573 69.625 35.2046V35.7103C69.625 39.0629 72.352 41.7785 75.7187 41.7785H94V41.2728H75.7187Z" fill="#1A237E" fill-opacity="0.1"/></g><path d="M69.625 17H35.0937C31.7422 17 29 19.7307 29 23.0682V99.9318C29 103.269 31.7422 106 35.0937 106H87.9062C91.2578 106 94 103.269 94 99.9318V41.2727L69.625 17Z" fill="url(#paint1_radial_2003_205)"/><defs><linearGradient id="paint0_linear_2003_205" x1="1201.16" y1="232.623" x2="1201.16" y2="2289.08" gradientUnits="userSpaceOnUse"><stop stop-color="#1A237E" stop-opacity="0.2"/><stop offset="1" stop-color="#1A237E" stop-opacity="0.02"/></linearGradient><radialGradient id="paint1_radial_2003_205" cx="0" cy="0" r="1" gradientUnits="userSpaceOnUse" gradientTransform="translate(234.923 191.888) scale(10481.2 10377)"><stop stop-color="white" stop-opacity="0.1"/><stop offset="1" stop-color="white" stop-opacity="0"/></radialGradient></defs></svg>