<svg width="124" height="124" viewBox="0 0 124 124" fill="none" xmlns="http://www.w3.org/2000/svg"><path d="M41.9083 22.1274L41.9108 41.2449" stroke="#7E916F" stroke-width="2"/><path d="M41.9108 41.245L23 41.24" stroke="#1375EB" stroke-width="2"/><path d="M81.2031 22.2725C81.1767 22.2825 81.1544 22.2933 81.1362 22.305C81.1082 22.32 81.0941 22.3433 81.0941 22.375L81.0892 41.2525" stroke="#F3801D" stroke-width="2"/><path d="M81.0892 41.2524C81.0859 41.2524 81.0818 41.2524 81.0768 41.2524" stroke="#7EB426" stroke-width="2"/><path d="M41.9183 41.2525C41.9166 41.2508 41.9141 41.2483 41.9108 41.245" stroke="#91A080" stroke-width="2"/><path d="M99.8836 41.1924L81.0892 41.2524" stroke="#75783E" stroke-width="2"/><path d="M41.9232 67.6725L23 67.6675" stroke="#138495" stroke-width="2"/><path d="M41.9256 86.7824L41.9232 77.2124" stroke="#00983A" stroke-width="2"/><path d="M41.9083 22.1274L41.9108 41.2449L23 41.2399V27.1924C23.1403 26.1991 23.4316 25.3649 23.874 24.6899C24.965 23.0199 26.5512 22.1791 28.6326 22.1674C33.0331 22.1441 37.4583 22.1308 41.9083 22.1274Z" fill="#0066DA"/><path d="M41.9083 22.1274L80.8837 22.1324C80.9658 22.1324 81.0454 22.1577 81.1115 22.2049L81.2031 22.2724C81.1767 22.2824 81.1544 22.2933 81.1362 22.3049C81.1082 22.3199 81.0941 22.3433 81.0941 22.3749L81.0892 41.2524C81.0859 41.2524 81.0818 41.2524 81.0768 41.2524H41.9182C41.9166 41.2508 41.9141 41.2483 41.9108 41.2449L41.9083 22.1274Z" fill="#FBBC04"/><path d="M81.2031 22.2725L99.8836 41.1925L81.0892 41.2525L81.0941 22.375C81.0941 22.3433 81.1082 22.32 81.1362 22.305C81.1544 22.2933 81.1767 22.2825 81.2031 22.2725Z" fill="#EA4335"/><path d="M23 41.24L41.9108 41.245C41.9141 41.2483 41.9166 41.2508 41.9182 41.2525L41.9232 67.6725L23 67.6675V41.24Z" fill="#2684FC"/><path d="M99.8836 41.1925L100 41.2775V81.7525C99.5609 84.1742 98.318 85.7383 96.2713 86.445C95.5417 86.6983 94.4664 86.8233 93.0452 86.82C83.8201 86.805 74.5008 86.7908 65.0875 86.7775C63.7208 86.7758 62.3343 86.7858 60.928 86.8075C60.8505 86.8092 60.7844 86.8375 60.73 86.8925C56.1248 91.5208 51.5032 96.1892 46.865 100.898C46.1544 101.62 45.3498 102.023 44.3297 101.87C43.379 101.728 42.6783 101.233 42.2277 100.385C42.0379 100.025 41.9413 99.3683 41.938 98.415C41.9265 94.55 41.9223 90.6725 41.9256 86.7825L41.9232 77.2125L51.277 67.7675C51.3178 67.7263 51.3663 67.6936 51.4199 67.6713C51.4734 67.649 51.5309 67.6375 51.589 67.6375L80.8787 67.6475C80.9332 67.6475 80.9855 67.6256 81.024 67.5867C81.0626 67.5478 81.0842 67.495 81.0842 67.44L81.0768 41.2525C81.0817 41.2525 81.0859 41.2525 81.0892 41.2525L99.8836 41.1925Z" fill="#00AC47"/><path d="M41.9232 67.6725V77.2125L41.9257 86.7825C37.9692 86.8058 34.0466 86.8133 30.1578 86.805C28.5369 86.8016 27.3691 86.6733 26.6544 86.42C24.6506 85.7133 23.4325 84.1466 23 81.72V67.6675L41.9232 67.6725Z" fill="#00832D"/></svg>