<svg width="124" height="124" viewBox="0 0 124 124" fill="none" xmlns="http://www.w3.org/2000/svg"><g clip-path="url(#clip0_2002_37)"><rect width="124" height="124" fill="url(#paint0_linear_2002_37)"/><path fill-rule="evenodd" clip-rule="evenodd" d="M93.0469 56.8971C93.4368 57.5721 93.5644 58.34 93.6065 59.2034L93.6619 60.3541V68.4007L93.7184 69.5527C93.8315 71.4339 95.2142 72.8249 97.1035 72.9432L98.2455 73V60.3541L98.302 59.2034C98.349 58.3497 98.4753 57.5673 98.8712 56.8874C99.2747 56.1902 99.8538 55.6117 100.551 55.21C101.247 54.8083 102.037 54.5977 102.841 54.5991C103.644 54.6006 104.433 54.8142 105.128 55.2184C105.824 55.6226 106.401 56.2032 106.801 56.9019C107.191 57.5769 107.313 58.3594 107.36 59.2034L107.416 60.3505V68.4007L107.473 69.5527C107.591 71.4436 108.963 72.8346 110.858 72.9432L112 73V59.2034C112 56.7638 111.034 54.424 109.316 52.6986C107.597 50.9732 105.265 50.0034 102.834 50.0024C101.533 50.001 100.246 50.2783 99.06 50.8158C97.8741 51.3532 96.8161 52.1384 95.9567 53.1189C95.0969 52.1388 94.0388 51.3538 92.853 50.8162C91.6671 50.2786 90.3807 50.0008 89.0794 50.0012C87.1757 50.0012 85.4091 50.5808 83.9458 51.5818C83.0529 50.582 81.0554 50.0012 79.9085 50.0012V73L81.0554 72.9432C82.9735 72.8165 84.3598 71.4629 84.4344 69.5527L84.4958 68.4007V60.3541L84.5523 59.2034C84.6005 58.3352 84.7208 57.5721 85.1119 56.8923C85.5157 56.1954 86.0946 55.6171 86.7908 55.2149C87.4869 54.8128 88.2761 54.6009 89.0794 54.6005C89.8834 54.6007 90.6731 54.8129 91.3695 55.216C92.0658 55.6191 92.6443 56.1989 93.0469 56.8971ZM14.5836 72.9445L15.7304 73H32.9206L32.864 71.8529C32.7088 69.962 31.3742 68.5806 29.4838 68.4575L28.3369 68.4007H18.0241L31.7738 54.5993L31.7172 53.4534C31.6282 51.5432 30.2371 50.163 28.3369 50.058L27.1901 50.006L10 50.0012L10.0566 51.1519C10.207 53.0247 11.5608 54.4351 13.4356 54.5437L14.5836 54.6005H24.8965L11.1468 68.4019L11.2034 69.5527C11.3165 71.4484 12.6799 72.8213 14.5836 72.9432V72.9445ZM75.4091 53.3677C76.4735 54.4354 77.3179 55.7032 77.8939 57.0984C78.47 58.4937 78.7665 59.9891 78.7665 61.4994C78.7665 63.0096 78.47 64.5051 77.8939 65.9004C77.3179 67.2956 76.4735 68.5633 75.4091 69.6311C73.2587 71.7872 70.3432 72.9982 67.3032 72.9982C64.2633 72.9982 61.3478 71.7872 59.1974 69.6311C54.722 65.1405 54.722 57.8583 59.1974 53.3677C60.2608 52.3002 61.5233 51.4534 62.9129 50.8756C64.3025 50.2978 65.7919 50.0002 67.296 50C68.8026 49.999 70.2947 50.296 71.6868 50.874C73.0789 51.4521 74.3438 52.2999 75.4091 53.3689V53.3677ZM72.1661 56.6242C73.4551 57.9187 74.1792 59.6737 74.1792 61.5036C74.1792 63.3335 73.4551 65.0886 72.1661 66.383C70.876 67.6765 69.1269 68.4031 67.3032 68.4031C65.4796 68.4031 63.7305 67.6765 62.4404 66.383C61.1514 65.0886 60.4273 63.3335 60.4273 61.5036C60.4273 59.6737 61.1514 57.9187 62.4404 56.6242C63.7305 55.3308 65.4796 54.6042 67.3032 54.6042C69.1269 54.6042 70.876 55.3308 72.1661 56.6242ZM43.2431 50C44.7473 50.0004 46.2368 50.2981 47.6264 50.8761C49.0159 51.4542 50.2784 52.3012 51.3418 53.3689C55.8183 57.8583 55.8183 65.1417 51.3418 69.6311C49.1913 71.7872 46.2758 72.9982 43.2359 72.9982C40.1959 72.9982 37.2804 71.7872 35.13 69.6311C30.6546 65.1405 30.6546 57.8583 35.13 53.3677C36.1934 52.3002 37.4559 51.4534 38.8455 50.8756C40.2351 50.2978 41.7245 50.0002 43.2286 50H43.2431ZM48.0987 56.6218C49.3881 57.9163 50.1124 59.6716 50.1124 61.5018C50.1124 63.332 49.3881 65.0873 48.0987 66.3818C46.8086 67.6753 45.0596 68.4019 43.2359 68.4019C41.4122 68.4019 39.6631 67.6753 38.373 66.3818C37.084 65.0874 36.3599 63.3323 36.3599 61.5024C36.3599 59.6725 37.084 57.9174 38.373 56.623C39.6631 55.3295 41.4122 54.603 43.2359 54.603C45.0596 54.603 46.8086 55.3295 48.0987 56.623V56.6218Z" fill="white"/></g><defs><linearGradient id="paint0_linear_2002_37" x1="62" y1="1" x2="62" y2="124" gradientUnits="userSpaceOnUse"><stop stop-color="#007BFD"/><stop offset="1" stop-color="#0044FF"/></linearGradient><clipPath id="clip0_2002_37"><rect width="124" height="124" fill="white"/></clipPath></defs></svg>