<svg width="1085" height="337" viewBox="0 0 1085 337" fill="none" xmlns="http://www.w3.org/2000/svg">
<g clip-path="url(#clip0_10483_49841)">
<path d="M390 267.5V65H498.15C519.55 65 533.2 69.8 539.1 79.4C545 88.9 547.95 99.65 547.95 111.65C547.95 124.15 545.25 134.95 539.85 144.05C534.45 153.05 526.4 157.8 515.7 158.3C526.9 158.9 535.75 163.9 542.25 173.3C548.75 182.6 552 194.65 552 209.45C552 226.15 549.05 240 543.15 251C537.25 262 523.8 267.5 502.8 267.5H390ZM426.75 242.3H493.5C501.8 242.3 507.5 239.25 510.6 233.15C513.8 226.95 515.4 217.8 515.4 205.7C515.4 194.4 513.5 185.65 509.7 179.45C505.9 173.25 498.8 170.15 488.4 170.15H426.75V242.3ZM426.75 147.5H486.15C495.55 147.5 502 144.7 505.5 139.1C509.1 133.4 510.9 126 510.9 116.9C510.9 108.4 509.4 101.8 506.4 97.1C503.5 92.4 497.75 90.05 489.15 90.05H426.75V147.5ZM585.115 267.5V32H621.265V267.5H585.115ZM732.129 268.85C703.829 268.85 683.129 261.3 670.029 246.2C656.929 231.1 650.379 208.4 650.379 178.1C650.379 147.7 656.929 125.05 670.029 110.15C683.129 95.25 703.829 87.8 732.129 87.8C760.529 87.8 781.229 95.25 794.229 110.15C807.329 125.05 813.879 147.7 813.879 178.1C813.879 208.4 807.329 231.1 794.229 246.2C781.229 261.3 760.529 268.85 732.129 268.85ZM732.129 243.95C745.429 243.95 756.329 239.45 764.829 230.45C773.329 221.35 777.579 203.95 777.579 178.25C777.579 152.45 773.329 135.1 764.829 126.2C756.329 117.2 745.429 112.7 732.129 112.7C718.929 112.7 708.029 117.2 699.429 126.2C690.929 135.1 686.679 152.45 686.679 178.25C686.679 203.95 690.929 221.35 699.429 230.45C708.029 239.45 718.929 243.95 732.129 243.95ZM915.307 337.4C895.207 337.4 878.157 332.9 864.157 323.9C850.157 315 842.307 299.65 840.607 277.85H876.007C876.807 286.55 878.857 293.55 882.157 298.85C885.557 304.15 890.207 308 896.107 310.4C902.107 312.9 908.907 314.15 916.507 314.15C929.107 314.15 939.207 310.85 946.807 304.25C954.507 297.75 958.357 284.5 958.357 264.5V125.75L967.807 89.75H994.657V261.05C994.657 280.55 991.007 295.85 983.707 306.95C976.507 318.15 967.357 326 956.257 330.5C945.257 335.1 931.607 337.4 915.307 337.4ZM902.407 268.55C880.307 268.55 863.807 260.95 852.907 245.75C842.107 230.45 836.707 207.95 836.707 178.25C836.707 148.55 842.057 126.1 852.757 110.9C863.457 95.7 879.907 88.1 902.107 88.1C922.007 88.1 938.957 93.15 952.957 103.25C967.057 113.25 974.107 123.75 974.107 134.75L958.207 151.55C958.207 141.45 953.907 132.55 945.307 124.85C936.707 117.15 926.407 113.3 914.407 113.3C901.707 113.3 891.657 117.85 884.257 126.95C876.957 135.95 873.307 153.1 873.307 178.4C873.307 203.7 876.957 220.9 884.257 230C891.657 239.1 901.707 243.65 914.407 243.65C926.407 243.65 936.707 239.75 945.307 231.95C953.907 224.15 958.207 215.15 958.207 204.95L974.257 222.95C974.257 234.15 967.257 244.55 953.257 254.15C939.357 263.75 922.407 268.55 902.407 268.55Z" fill="white"></path>
<g clip-path="url(#clip1_10483_49841)">
<path d="M95.6668 337C31.8889 337 0 305.111 0 241.333V104.667C0 40.8889 31.8889 9 95.6668 9H232.333C296.111 9 328 40.8889 328 104.667V241.333C328 305.111 296.111 337 232.333 337H95.6668Z" fill="white"></path>
<path fill-rule="evenodd" clip-rule="evenodd" d="M164.16 285.109C143.771 285.109 125.978 280.447 110.78 271.122C95.5831 261.797 83.7838 248.752 75.3828 231.986C66.9818 215.221 62.7812 195.629 62.7812 173.212C62.7812 150.701 66.9818 131.015 75.3828 114.155C83.7838 97.295 95.5831 84.2026 110.78 74.8778C125.978 65.553 143.771 60.8906 164.16 60.8906C184.549 60.8906 202.342 65.553 217.54 74.8778C232.737 84.2026 244.536 97.295 252.937 114.155C261.338 131.015 265.539 150.701 265.539 173.212C265.539 195.629 261.338 215.221 252.937 231.986C244.536 248.752 232.737 261.797 217.54 271.122C202.342 280.447 184.549 285.109 164.16 285.109ZM208.739 249.197C235.895 233.552 238.064 186.57 213.582 144.258C189.101 101.947 147.24 80.3291 120.084 95.9739C92.9278 111.619 90.7594 158.602 115.241 200.913C139.722 243.225 181.583 264.842 208.739 249.197Z" fill="#15172B"></path>
</g>
</g>
<defs>
<clipPath id="clip0_10483_49841">
<rect width="1085" height="337" fill="white"></rect>
</clipPath>
<clipPath id="clip1_10483_49841">
<rect width="328" height="328" fill="white" transform="translate(0 9)"></rect>
</clipPath>
</defs>
</svg>
