<svg width="124" height="124" viewBox="0 0 124 124" fill="none" xmlns="http://www.w3.org/2000/svg"><path d="M82.1222 80.4766C85.424 86.2206 88.6891 91.8994 91.9516 97.572C77.5045 108.66 55.0275 110 38.3881 97.2311C19.2399 82.5254 16.0927 57.433 26.3444 39.3705C38.1353 18.5947 60.1999 14 74.4064 17.3692C74.0223 18.2059 65.5136 35.9017 65.5136 35.9017C65.5136 35.9017 64.8409 35.946 64.4604 35.9534C60.2613 36.1318 57.1338 37.1113 53.7816 38.8488C50.1038 40.7727 46.952 43.5703 44.6018 46.9972C42.2515 50.4241 40.7743 54.3759 40.2993 58.5073C39.8036 62.697 40.3815 66.9443 41.9784 70.848C43.3286 74.1482 45.2385 77.0792 47.799 79.5537C51.7268 83.3535 56.401 85.7063 61.8189 86.4852C66.9497 87.2235 71.884 86.4925 76.5078 84.1632C78.2422 83.2908 79.7176 82.3273 81.4422 81.0057C81.6619 80.863 81.8571 80.6821 82.1222 80.4766Z" fill="#FF492C"/><path d="M82.1541 30.1012C81.3158 29.2743 80.5388 28.5113 79.7655 27.7435C79.304 27.2858 78.8596 26.8096 78.3871 26.3629C78.2177 26.2017 78.0188 25.9814 78.0188 25.9814C78.0188 25.9814 78.1796 25.6394 78.2484 25.4991C79.153 23.6792 80.5707 22.349 82.2523 21.2908C84.1118 20.1117 86.2783 19.5118 88.4779 19.5668C91.2925 19.6222 93.9094 20.3248 96.1176 22.2173C97.7476 23.614 98.5835 25.3859 98.7308 27.5011C98.9763 31.0696 97.5034 33.8025 94.5784 35.7098C92.8599 36.832 91.0065 37.6995 89.1481 38.727C88.1232 39.2942 87.2468 39.7926 86.2452 40.8188C85.3639 41.8487 85.3209 42.8196 85.3209 42.8196L98.6351 42.8024V48.7469H78.0839V48.1723C78.0053 45.2511 78.3453 42.5021 79.6796 39.8492C80.907 37.4153 82.8145 35.6335 85.1061 34.2615C86.8712 33.2045 88.7296 32.305 90.4983 31.2529C91.5895 30.6044 92.3604 29.6533 92.3542 28.2739C92.3542 27.0901 91.495 26.038 90.2676 25.7095C87.3732 24.9269 84.4273 26.1759 82.8955 28.8313C82.6721 29.2189 82.4438 29.604 82.1541 30.1012ZM107.907 74.158L96.6871 54.7333H74.4838L63.1912 74.3586H85.5578L96.5951 93.691L107.907 74.158Z" fill="#FF492C"/></svg>