<svg width="124" height="124" viewBox="0 0 124 124" fill="none" xmlns="http://www.w3.org/2000/svg"><style>:root {
      color-scheme: dark light;
    }</style><path fill-rule="evenodd" clip-rule="evenodd" d="M62.3337 8.74414C91.6056 8.74414 115.334 33.0708 115.334 63.0847C115.334 87.0884 100.165 107.451 79.1188 114.643C76.4317 115.179 75.4777 113.482 75.4777 112.035C75.4777 110.243 75.5413 104.392 75.5413 97.1206C75.5413 92.0538 73.8453 88.7469 71.9426 87.0615C83.7457 85.7153 96.1477 81.1197 96.1477 60.2483C96.1477 54.3123 94.0913 49.4684 90.6887 45.663C91.2399 44.2903 93.0578 38.7631 90.1693 31.2795C90.1693 31.2795 85.7279 29.8234 75.6102 36.8512C71.3755 35.6481 66.8387 35.0428 62.3337 35.0216C57.8287 35.0428 53.2972 35.6481 49.0678 36.8512C38.9395 29.8234 34.4875 31.2795 34.4875 31.2795C31.6096 38.7631 33.4275 44.2903 33.9734 45.663C30.5867 49.4684 28.5144 54.3123 28.5144 60.2483C28.5144 81.0667 40.8899 85.7328 52.6612 87.1055C51.1454 88.4623 49.7727 90.8558 49.2957 94.3697C46.2747 95.7583 38.6003 98.1615 33.8727 89.8564C33.8727 89.8564 31.069 84.6352 25.7478 84.2536C25.7478 84.2536 20.5803 84.185 25.3874 87.5558C25.3874 87.5558 28.8589 89.2253 31.2704 95.5058C31.2704 95.5058 34.3815 105.205 49.1261 101.919C49.1526 106.461 49.2003 110.741 49.2003 112.035C49.2003 113.471 48.2251 115.152 45.5804 114.648C24.5182 107.467 9.33368 87.0937 9.33368 63.0847C9.33368 33.0708 33.0671 8.74414 62.3337 8.74414Z" fill="currentColor"/></svg>