<svg width="124" height="124" viewBox="0 0 124 124" fill="none" xmlns="http://www.w3.org/2000/svg"><g clip-path="url(#clip0_2002_14)"><rect width="124" height="124" fill="#625DF5"/><path d="M107.375 56.8458H80.2523L103.744 43.2844L98.5836 34.3406L75.098 47.9086L88.6527 24.4164L79.7156 19.2555L66.1675 42.7411V15.625H55.8325V42.7477L42.2777 19.2555L33.3472 24.4164L46.902 47.902L23.4164 34.3472L18.2555 43.2777L41.7477 56.8391H14.625V67.1542H41.7411L18.2555 80.7156L23.4164 89.6594L46.902 76.098L33.3406 99.5836L42.2844 104.744L55.8391 81.2523V108.375H66.1542V81.2523L79.7156 104.744L88.6527 99.5836L75.0914 76.0914L98.577 89.6527L103.738 80.7156L80.2523 67.1609H107.368L107.375 56.8458ZM61 76.0318C57.2645 76.0318 53.682 74.5478 51.0406 71.9064C48.3992 69.265 46.9153 65.6825 46.9153 61.947C46.9153 58.2115 48.3992 54.629 51.0406 51.9876C53.682 49.3462 57.2645 47.8623 61 47.8623C64.7355 47.8623 68.318 49.3462 70.9594 51.9876C73.6008 54.629 75.0848 58.2115 75.0848 61.947C75.0848 65.6825 73.6008 69.265 70.9594 71.9064C68.318 74.5478 64.7355 76.0318 61 76.0318Z" fill="white"/></g><defs><clipPath id="clip0_2002_14"><rect width="124" height="124" fill="white"/></clipPath></defs></svg>