<svg width="124" height="124" viewBox="0 0 124 124" fill="none" xmlns="http://www.w3.org/2000/svg"><path d="M62 108.375C87.6122 108.375 108.375 87.6122 108.375 62C108.375 36.3878 87.6122 15.625 62 15.625C36.3878 15.625 15.625 36.3878 15.625 62C15.625 87.6122 36.3878 108.375 62 108.375Z" fill="url(#paint0_linear_2001_185)"/><path d="M85.1431 42.8166C85.5558 40.1485 83.0191 38.0425 80.6467 39.0841L33.396 59.8296C31.6947 60.5766 31.8191 63.1537 33.5836 63.7155L43.3278 66.8187C45.1877 67.411 47.2014 67.1046 48.8255 65.9826L70.7947 50.8047C71.4572 50.347 72.1793 51.289 71.6132 51.8724L55.7993 68.1765C54.2653 69.7582 54.5697 72.4383 56.4151 73.5954L74.1204 84.6982C76.1063 85.9434 78.6609 84.6926 79.0322 82.2927L85.1431 42.8166Z" fill="white"/><defs><linearGradient id="paint0_linear_2001_185" x1="62" y1="15.625" x2="62" y2="108.375" gradientUnits="userSpaceOnUse"><stop stop-color="#37BBFE"/><stop offset="1" stop-color="#007DBB"/></linearGradient></defs></svg>