<svg width="124" height="124" viewBox="0 0 124 124" fill="none" xmlns="http://www.w3.org/2000/svg"><path d="M99.8203 15H24.1797C19.1099 15 15 19.1099 15 24.1797V99.8203C15 104.89 19.1099 109 24.1797 109H99.8203C104.89 109 109 104.89 109 99.8203V24.1797C109 19.1099 104.89 15 99.8203 15Z" fill="url(#paint0_linear_2001_273)"/><path d="M92.3737 27.22H72.5162C70.0827 27.22 68.11 29.1927 68.11 31.6262V63.9387C68.11 66.3722 70.0827 68.345 72.5162 68.345H92.3737C94.8072 68.345 96.78 66.3722 96.78 63.9387V31.6262C96.78 29.1927 94.8072 27.22 92.3737 27.22Z" fill="white"/><path d="M51.4837 27.22H31.6262C29.1927 27.22 27.22 29.1927 27.22 31.6262V87.4387C27.22 89.8722 29.1927 91.845 31.6262 91.845H51.4837C53.9172 91.845 55.89 89.8722 55.89 87.4387V31.6262C55.89 29.1927 53.9172 27.22 51.4837 27.22Z" fill="white"/><defs><linearGradient id="paint0_linear_2001_273" x1="4715" y1="15" x2="4715" y2="9415" gradientUnits="userSpaceOnUse"><stop stop-color="#007AC2"/><stop offset="1" stop-color="#007AC2"/></linearGradient></defs></svg>