<svg width="124" height="124" viewBox="0 0 124 124" fill="none" xmlns="http://www.w3.org/2000/svg"><path fill-rule="evenodd" clip-rule="evenodd" d="M93.6684 29.9493C85.6861 21.7508 74.7541 17.0889 63.3121 17.0042C39.5567 16.765 20.0287 35.9015 19.7812 59.663C19.6949 67.2253 21.6044 74.6765 25.3171 81.2653L18.9777 103.537L41.8842 97.7749C48.1677 101.281 55.23 103.156 62.4253 103.229L62.4438 103.229C86.195 103.468 105.725 84.3296 105.972 60.5683C106.125 49.1283 101.694 38.1029 93.6684 29.9493ZM62.5172 95.9409L62.5027 95.9408C56.0875 95.8791 49.8069 94.0935 44.3189 90.7709L43.0187 89.9827L29.4273 93.4025L33.1808 80.2138L32.341 78.8499C28.8158 73.104 26.9869 66.4787 27.0652 59.7385C27.2641 39.9939 43.4943 24.0832 63.2533 24.2822C72.7546 24.3834 81.8268 28.2548 88.4737 35.0448C95.1206 41.8349 98.7979 50.9873 98.6968 60.4888C98.4896 80.2393 82.2594 96.1398 62.5172 95.9409ZM82.4346 69.3104C81.3634 68.7602 76.0956 66.1036 75.1116 65.7235C74.1275 65.3439 73.4123 65.167 72.6844 66.2385C71.9566 67.31 69.8678 69.7132 69.2324 70.426C68.597 71.1385 67.9679 71.221 66.8964 70.6711C65.8253 70.1209 62.3674 68.9492 58.2902 65.2402C55.118 62.352 52.9817 58.805 52.3726 57.72C51.7636 56.635 52.3232 56.066 52.868 55.5259C53.3564 55.0494 53.9572 54.2804 54.5008 53.6558C55.0444 53.0309 55.2308 52.5864 55.5953 51.8709C55.9604 51.1553 55.7887 50.5254 55.5255 49.9833C55.2625 49.4413 53.1606 44.1193 52.2855 41.955C51.4325 39.8467 50.5432 40.1209 49.8824 40.0708C49.2628 40.0336 48.5354 40.0201 47.8163 40.0128C46.7126 40.0306 45.6664 40.5085 44.9305 41.3312C43.9339 42.3999 41.1263 44.9756 41.073 50.2759C41.0196 55.5763 44.826 60.7355 45.356 61.4601C45.886 62.1847 52.8333 73.1313 63.5834 77.9059C65.5799 78.791 67.6214 79.5703 69.6998 80.2408C72.2702 81.0933 74.6188 80.9951 76.4772 80.7369C78.5468 80.4477 82.8744 78.1951 83.7983 75.6893C84.7226 73.1838 84.7425 71.0263 84.4701 70.5751C84.1977 70.1239 83.5056 69.869 82.4345 69.3188L82.4346 69.3104Z" fill="#51C85D"/></svg>