<svg width="124" height="124" viewBox="0 0 124 124" fill="none" xmlns="http://www.w3.org/2000/svg"><path d="M61 111C88.6142 111 111 88.6142 111 61C111 33.3858 88.6142 11 61 11C33.3858 11 11 33.3858 11 61C11 88.6142 33.3858 111 61 111Z" fill="#FD7622"/><path d="M67.25 61.0107C67.2503 62.812 66.9251 64.5986 66.29 66.2842C64.6029 66.9217 62.8143 67.2489 61.0107 67.25H60.9893C59.188 67.2501 57.4015 66.9249 55.7158 66.29C55.0782 64.6029 54.751 62.8143 54.75 61.0107V60.9893C54.7502 59.188 55.0754 57.4016 55.71 55.7158C57.3971 55.0782 59.1857 54.751 60.9893 54.75H61.0107C62.8141 54.7493 64.6026 55.0748 66.29 55.7109C66.9251 57.3966 67.2504 59.1831 67.25 60.9844V61.0059V61.0107ZM85.6523 56.833H71.0586L81.3779 46.5146C80.5674 45.3779 79.6636 44.3108 78.6758 43.3242C77.689 42.3378 76.6219 41.4353 75.4854 40.626L65.167 50.9414V36.3477C63.7945 36.1171 62.4053 36.0008 61.0137 36H60.9873C59.5956 36.0008 58.2064 36.1171 56.834 36.3477V50.9414L46.5146 40.6221C45.378 41.4326 44.3108 42.3364 43.3242 43.3242C42.3382 44.3103 41.436 45.3768 40.627 46.5127L50.9414 56.833H36.3477C36.3477 56.833 36 59.5742 36 60.9912V61.0088C36.0006 62.4021 36.1169 63.7929 36.3477 65.167H50.9414L40.6221 75.4854C42.2448 77.7636 44.2364 79.7552 46.5146 81.3779L56.833 71.0586V85.6523C58.2042 85.8826 59.5921 85.9989 60.9824 86H61.0186C62.4086 85.9988 63.7961 85.8825 65.167 85.6523V71.0586L75.4854 81.3779C76.622 80.5674 77.6892 79.6636 78.6758 78.6758C79.6625 77.689 80.5653 76.6219 81.375 75.4854L71.0586 65.167H85.6523C85.8826 63.7958 85.9989 62.4079 86 61.0176V60.9814C85.9988 59.5914 85.8825 58.2039 85.6523 56.833Z" fill="white"/></svg>