<svg width="124" height="124" viewBox="0 0 124 124" fill="none" xmlns="http://www.w3.org/2000/svg"><path d="M62.7125 61.9999C62.7125 53.2992 69.5908 46.2522 78.0688 46.2522C86.5535 46.2522 93.425 53.2924 93.425 61.9999C93.425 70.7007 86.5535 77.7477 78.0688 77.7477C69.5975 77.7477 62.7125 70.7074 62.7125 61.9999Z" fill="#1ABCFE"/><path d="M32 93.5023C32 84.8015 38.8783 77.7478 47.3563 77.7478H62.7125V93.5023C62.7125 102.196 55.8343 109.25 47.3563 109.25C38.8783 109.25 32 102.196 32 93.5023Z" fill="#0ACF83"/><path d="M62.7125 14.75V46.2522H78.0688C86.5535 46.2522 93.425 39.1985 93.425 30.4977C93.425 21.8037 86.5535 14.75 78.0688 14.75H62.7125Z" fill="#FF7262"/><path d="M32 30.4977C32 39.1985 38.8783 46.2522 47.3563 46.2522H62.7125V14.75H47.3563C38.8783 14.75 32 21.8037 32 30.4977Z" fill="#F24E1E"/><path d="M32 61.9999C32 70.7007 38.8783 77.7477 47.3563 77.7477H62.7125V46.2522H47.3563C38.8783 46.2522 32 53.2924 32 61.9999Z" fill="#A259FF"/></svg>