<svg width="124" height="124" viewBox="0 0 124 124" fill="none" xmlns="http://www.w3.org/2000/svg"><path d="M108.081 69.102L102.782 53.2125L92.3065 21.69C92.1824 21.3331 91.9497 21.024 91.641 20.8061C91.3323 20.5882 90.9631 20.4724 90.5852 20.475C90.2085 20.4738 89.8408 20.5902 89.5335 20.8081C89.2261 21.0259 88.9944 21.3342 88.8707 21.69L78.3947 53.1923H43.5985L33.1225 21.6833C32.9985 21.3282 32.7666 21.0207 32.4591 20.804C32.1516 20.5874 31.7841 20.4723 31.408 20.475C31.031 20.4728 30.6629 20.5888 30.3553 20.8068C30.0478 21.0247 29.8163 21.3336 29.6935 21.69L19.231 53.1923L13.939 69.102C13.7048 69.8109 13.705 70.5763 13.9396 71.2851C14.1742 71.9938 14.6308 72.6082 15.2417 73.0373L61.0067 105.518L106.758 73.0373C107.372 72.6102 107.832 71.997 108.07 71.2883C108.308 70.5796 108.312 69.8131 108.081 69.102Z" fill="#FC6D26"/><path d="M61 105.498L78.4015 53.1855H43.6052L61 105.498Z" fill="#E24329"/><path d="M61 105.498L43.5917 53.1855H19.2377L61 105.498Z" fill="#FC6D26"/><path d="M19.2175 53.2058L13.9255 69.0953C13.6913 69.8042 13.6915 70.5696 13.9261 71.2784C14.1608 71.9871 14.6173 72.6015 15.2282 73.0306L61 105.525L19.2175 53.2126V53.2058Z" fill="#FCA326"/><path d="M19.231 53.2057H43.612L33.1225 21.7034C32.9988 21.3476 32.7671 21.0393 32.4598 20.8215C32.1524 20.6037 31.7847 20.4872 31.408 20.4884C31.0302 20.4858 30.661 20.6016 30.3523 20.8195C30.0436 21.0374 29.8108 21.3465 29.6868 21.7034L19.231 53.2057Z" fill="#E24329"/><path d="M61 105.498L78.4015 53.1855H102.796L61 105.498Z" fill="#FC6D26"/><path d="M102.782 53.2058L108.068 69.0953C108.303 69.8041 108.303 70.5699 108.069 71.2789C107.834 71.9879 107.377 72.6022 106.765 73.0306L61 105.498L102.769 53.2058H102.782Z" fill="#FCA326"/><path d="M102.782 53.2057H78.415L88.8842 21.7035C89.0074 21.346 89.2399 21.0363 89.5488 20.8183C89.8577 20.6002 90.2274 20.4849 90.6055 20.4885C91.3817 20.4885 92.0702 20.9812 92.32 21.7035L102.796 53.2057H102.782Z" fill="#E24329"/></svg>