<svg width="124" height="124" viewBox="0 0 124 124" fill="none" xmlns="http://www.w3.org/2000/svg"><path d="M38.2656 94.6953V60.3047L18.4062 45.0469V87.4297C18.4062 92.2734 20.8281 94.6953 25.6719 94.6953" fill="#4285F4"/><path d="M37.2969 60.0625L62 78.7109L86.7031 60.0625V36.3281L62 54.9766L37.2969 36.3281" fill="#EA4335"/><path d="M85.7344 94.6953V60.3047L105.594 45.0469V87.4297C105.594 92.2734 103.172 94.6953 98.3281 94.6953" fill="#34A853"/><path d="M18.4062 45.5313L38.2656 60.7891V37.0547L31 31.4844C24.4609 26.3985 18.4062 31.4844 18.4062 37.7813" fill="#C5221F"/><path d="M105.594 45.5313L85.7344 60.7891V37.0547L93 31.4844C99.5391 26.3985 105.594 31.4844 105.594 37.7813" fill="#FBBC04"/></svg>