<svg width="124" height="124" viewBox="0 0 124 124" fill="none" xmlns="http://www.w3.org/2000/svg"><path d="M84.1053 39.8948H39.8948V84.1053H84.1053V39.8948Z" fill="white"/><path d="M84.1053 104L104 84.1053L94.0526 82.4081L84.1053 84.1053L82.2897 93.2041L84.1053 104Z" fill="#EA4335"/><path d="M20 84.1053V97.3684C20 101.032 22.9676 104 26.6316 104H39.8947L41.9374 94.0526L39.8947 84.1053L29.056 82.4081L20 84.1053Z" fill="#188038"/><path d="M104 39.8947V26.6316C104 22.9676 101.032 20 97.3684 20H84.1053C82.8949 24.9336 82.2897 28.5644 82.2897 30.8923C82.2897 33.2203 82.8949 36.2211 84.1053 39.8947C88.5053 41.1547 91.8211 41.7847 94.0526 41.7847C96.2842 41.7847 99.6 41.1547 104 39.8947Z" fill="#1967D2"/><path d="M104 39.8948H84.1052V84.1053H104V39.8948Z" fill="#FBBC04"/><path d="M84.1053 84.1052H39.8948V104H84.1053V84.1052Z" fill="#34A853"/><path d="M84.1053 20H26.6316C22.9676 20 20 22.9676 20 26.6316V84.1053H39.8947V39.8947H84.1053V20Z" fill="#4285F4"/><path d="M48.9634 74.191C47.311 73.0747 46.1671 71.4445 45.5426 69.2892L49.3779 67.7087C49.726 69.035 50.3339 70.0629 51.2016 70.7924C52.0637 71.5218 53.1137 71.881 54.3405 71.881C55.595 71.881 56.6726 71.4997 57.5734 70.7371C58.4742 69.9745 58.9273 69.0018 58.9273 67.8247C58.9273 66.62 58.4521 65.6363 57.5016 64.8737C56.551 64.111 55.3573 63.7297 53.9316 63.7297H51.7155V59.9331H53.705C54.9318 59.9331 55.9652 59.6016 56.8052 58.9384C57.6452 58.2753 58.0652 57.3689 58.0652 56.2139C58.0652 55.186 57.6894 54.3681 56.9379 53.7547C56.1863 53.1413 55.2358 52.8318 54.0808 52.8318C52.9534 52.8318 52.0581 53.1303 51.395 53.7326C50.7323 54.3366 50.234 55.0992 49.9471 55.9487L46.1505 54.3681C46.6534 52.9424 47.5763 51.6824 48.9302 50.5937C50.2842 49.505 52.0139 48.9579 54.1139 48.9579C55.6668 48.9579 57.065 49.2563 58.3029 49.8587C59.5408 50.461 60.5134 51.2955 61.2152 52.3566C61.9171 53.4231 62.2652 54.6168 62.2652 55.9431C62.2652 57.2971 61.9392 58.441 61.2871 59.3805C60.635 60.32 59.8337 61.0384 58.8831 61.5413V61.7679C60.1105 62.2739 61.1766 63.105 61.9668 64.1718C62.7681 65.2495 63.1716 66.5371 63.1716 68.0403C63.1716 69.5434 62.7902 70.8863 62.0276 72.0634C61.265 73.2405 60.2094 74.1689 58.8721 74.8431C57.5292 75.5174 56.0205 75.86 54.346 75.86C52.4063 75.8655 50.6158 75.3074 48.9634 74.191ZM72.5221 55.1584L68.311 58.2034L66.2055 55.0092L73.76 49.5603H76.6558V75.2631H72.5221V55.1584Z" fill="#4285F4"/></svg>