<svg width="124" height="124" viewBox="0 0 124 124" fill="none" xmlns="http://www.w3.org/2000/svg"><path d="M114.097 59.0129L66.6036 13.0776L62 8.625L26.249 43.2032L9.90317 59.0129C8.19894 60.6633 8.19894 63.3367 9.90317 64.9871L42.5658 96.5782L62 115.375L97.7509 80.7968L98.3045 80.2615L114.097 64.9871C115.801 63.3367 115.801 60.6633 114.097 59.0129ZM62 77.7815L45.6833 62L62 46.2185L78.3167 62L62 77.7815Z" fill="#2684FF"/><path fill-rule="evenodd" clip-rule="evenodd" d="M61.9996 46.2185C51.317 35.8847 51.2647 19.1473 61.8833 8.75159L26.1759 43.2734L45.61 62.0702L61.9996 46.2185Z" fill="url(#paint0_linear_2002_9)"/><path fill-rule="evenodd" clip-rule="evenodd" d="M78.3602 61.9573L62 77.7807C67.1564 82.7651 70.0535 89.527 70.0535 96.5774C70.0535 103.628 67.1564 110.39 62 115.375L97.7948 80.754L78.3602 61.9573Z" fill="url(#paint1_linear_2002_9)"/><defs><linearGradient id="paint0_linear_2002_9" x1="59.0861" y1="30.2538" x2="31.8677" y2="42.1376" gradientUnits="userSpaceOnUse"><stop offset="0.18" stop-color="#0052CC"/><stop offset="1" stop-color="#2684FF"/></linearGradient><linearGradient id="paint1_linear_2002_9" x1="65.1175" y1="93.5621" x2="92.2869" y2="81.7625" gradientUnits="userSpaceOnUse"><stop offset="0.18" stop-color="#0052CC"/><stop offset="1" stop-color="#2684FF"/></linearGradient></defs></svg>