<svg width="124" height="124" viewBox="0 0 124 124" fill="none" xmlns="http://www.w3.org/2000/svg"><path d="M110.13 37.0029H51.108V87.1473H110.13V37.0029Z" fill="white"/><path d="M50.0987 34.9047C47.8545 34.9047 46.0463 36.709 46.0463 38.9548L46.0634 85.4562C45.9523 87.6463 47.1834 89.5063 49.6541 89.5063H107.965C110.149 89.5063 112 88.2677 111.97 86.2748L112 38.9548C112 36.709 110.192 34.9047 107.948 34.9047H50.0987ZM49.2865 38.2605H108.726L108.743 86.1119H49.3036L49.2865 38.2605Z" fill="#0071C5"/><path d="M108.912 40.3318L80.4175 63.231V66.3254C80.6343 66.3731 80.8592 66.3697 81.0744 66.3154C81.2896 66.2611 81.4891 66.1574 81.6572 66.0126L108.912 44.1205V40.3318Z" fill="#0071C5"/><path d="M52.3259 40.3318L80.8207 63.231V66.3254C80.604 66.3731 80.3791 66.3697 80.1639 66.3154C79.9487 66.2611 79.7492 66.1574 79.5811 66.0126L52.3259 44.1205V40.3318Z" fill="#0071C5"/><path d="M69.1008 109V14L12 23.4974V99.4983L69.1008 109Z" fill="url(#paint0_linear_2001_245)"/><path d="M39.0911 44.5615C34.0839 44.5615 25.9423 48.7706 25.9423 62.0135C25.9423 74.9763 33.9916 79.1122 38.9609 79.0077C48.1651 78.814 51.732 69.4711 51.732 61.6205C51.732 53.1216 48.2225 44.5615 39.0911 44.5615ZM38.5707 51.1854C42.5793 51.1854 45.0168 55.266 45.0168 61.4971C45.0168 67.0082 42.9735 72.2442 38.6321 72.2442C33.1675 72.2442 31.8593 65.6055 31.9246 61.5957C31.9246 57.5205 33.7028 51.1854 38.5707 51.1854Z" fill="white"/><defs><linearGradient id="paint0_linear_2001_245" x1="69.0999" y1="61.5004" x2="12.0016" y2="61.5004" gradientUnits="userSpaceOnUse"><stop stop-color="#006BC2"/><stop offset="1" stop-color="#0077C9"/></linearGradient></defs></svg>